<svg xmlns="http://www.w3.org/2000/svg" xmlns:xlink="http://www.w3.org/1999/xlink" width="500" zoomAndPan="magnify" viewBox="0 0 375 374.999991" height="500" preserveAspectRatio="xMidYMid meet" version="1.0"><defs><g/><clipPath id="8fa78def3b"><path d="M 60.488281 161.671875 L 123.488281 161.671875 L 123.488281 213.421875 L 60.488281 213.421875 Z M 60.488281 161.671875 " clip-rule="nonzero"/></clipPath><clipPath id="3c4a6858d9"><rect x="0" width="183" y="0" height="44"/></clipPath></defs><rect x="-37.5" width="450" fill="#ffffff" y="-37.499999" height="449.999989" fill-opacity="1"/><rect x="-37.5" width="450" fill="#0b1320" y="-37.499999" height="449.999989" fill-opacity="1"/><g clip-path="url(#8fa78def3b)"><path fill="#f3f6fa" d="M 78.835938 212.613281 L 88.6875 202.757812 C 89.191406 202.253906 90.011719 202.257812 90.515625 202.757812 L 99.199219 211.441406 C 100.136719 212.378906 101.65625 212.378906 102.59375 211.441406 L 105.609375 208.425781 C 106.0625 207.972656 106.3125 207.367188 106.3125 206.726562 C 106.3125 206.085938 106.0625 205.484375 105.609375 205.03125 L 91.300781 190.71875 C 90.363281 189.785156 88.839844 189.785156 87.90625 190.71875 L 72.421875 206.203125 C 71.488281 207.136719 71.488281 208.660156 72.421875 209.597656 L 75.441406 212.613281 C 75.910156 213.082031 76.523438 213.316406 77.136719 213.316406 C 77.753906 213.316406 78.367188 213.082031 78.835938 212.613281 Z M 119.390625 205.902344 L 122.410156 202.882812 C 122.863281 202.429688 123.113281 201.828125 123.113281 201.1875 C 123.113281 200.546875 122.863281 199.945312 122.410156 199.492188 L 102.46875 179.550781 C 101.535156 178.613281 100.011719 178.613281 99.074219 179.550781 L 96.058594 182.566406 C 95.121094 183.503906 95.121094 185.027344 96.058594 185.960938 L 116 205.902344 C 116.46875 206.371094 117.082031 206.605469 117.695312 206.605469 C 118.308594 206.605469 118.925781 206.371094 119.390625 205.902344 Z M 65.90625 202.085938 C 65.265625 202.085938 64.664062 201.835938 64.210938 201.382812 L 61.191406 198.363281 C 60.738281 197.910156 60.488281 197.308594 60.488281 196.667969 C 60.488281 196.027344 60.738281 195.425781 61.191406 194.972656 L 93.550781 162.609375 C 94.488281 161.675781 96.011719 161.675781 96.945312 162.609375 L 99.964844 165.628906 C 100.898438 166.5625 100.898438 168.085938 99.964844 169.023438 L 67.605469 201.382812 C 67.148438 201.835938 66.546875 202.085938 65.90625 202.085938 " fill-opacity="1" fill-rule="nonzero"/></g><g transform="matrix(1, 0, 0, 1, 132, 165)"><g clip-path="url(#3c4a6858d9)"><g fill="#afc1d0" fill-opacity="1"><g transform="translate(1.134366, 34.9477)"><g><path d="M 16.21875 -7.28125 L 8.09375 -7.28125 L 5.671875 0 L 0.53125 0 L 9.25 -24.171875 L 15.3125 -24.171875 L 23.859375 0 L 18.609375 0 Z M 12.1875 -20.03125 L 9.3125 -11.109375 L 15 -11.109375 Z M 12.1875 -20.03125 "/></g></g></g><g fill="#afc1d0" fill-opacity="1"><g transform="translate(23.063334, 34.9477)"><g><path d="M 20.640625 -6.09375 C 20.941406 -3.21875 21.523438 -1.1875 22.390625 0 L 17.09375 0 C 16.507812 -1.613281 16.113281 -3.410156 15.90625 -5.390625 C 15.570312 -8.128906 14.484375 -9.566406 12.640625 -9.703125 C 12.203125 -9.722656 11.570312 -9.734375 10.75 -9.734375 L 7.953125 -9.734375 L 7.953125 0 L 3.125 0 L 3.125 -24.171875 L 11.953125 -24.171875 C 13.273438 -24.171875 14.441406 -24.113281 15.453125 -24 C 17.367188 -23.757812 18.90625 -23.117188 20.0625 -22.078125 C 21.21875 -21.046875 21.796875 -19.546875 21.796875 -17.578125 C 21.796875 -16.066406 21.375 -14.8125 20.53125 -13.8125 C 19.6875 -12.820312 18.53125 -12.117188 17.0625 -11.703125 C 19.132812 -10.910156 20.328125 -9.039062 20.640625 -6.09375 Z M 7.953125 -13.34375 L 11.28125 -13.34375 C 12.238281 -13.34375 12.890625 -13.351562 13.234375 -13.375 C 15.546875 -13.59375 16.703125 -14.75 16.703125 -16.84375 C 16.703125 -17.945312 16.425781 -18.757812 15.875 -19.28125 C 15.332031 -19.8125 14.546875 -20.144531 13.515625 -20.28125 C 12.960938 -20.351562 12.285156 -20.390625 11.484375 -20.390625 L 7.953125 -20.390625 Z M 7.953125 -13.34375 "/></g></g></g><g fill="#afc1d0" fill-opacity="1"><g transform="translate(44.221622, 34.9477)"><g><path d="M 24.34375 0 L 17.71875 0 L 7.78125 -18.359375 C 7.894531 -16.160156 7.953125 -13.6875 7.953125 -10.9375 L 7.953125 0 L 3.125 0 L 3.125 -24.171875 L 9.53125 -24.171875 L 19.6875 -5.46875 C 19.570312 -7.632812 19.515625 -10.164062 19.515625 -13.0625 L 19.515625 -24.171875 L 24.3125 -24.171875 Z M 24.34375 0 "/></g></g></g><g fill="#afc1d0" fill-opacity="1"><g transform="translate(69.093191, 34.9477)"><g><path d="M 13.734375 -24.65625 C 17.421875 -24.65625 20.332031 -23.515625 22.46875 -21.234375 C 24.601562 -18.960938 25.671875 -15.910156 25.671875 -12.078125 C 25.671875 -8.273438 24.601562 -5.226562 22.46875 -2.9375 C 20.332031 -0.65625 17.421875 0.484375 13.734375 0.484375 C 10.046875 0.484375 7.128906 -0.65625 4.984375 -2.9375 C 2.847656 -5.226562 1.78125 -8.273438 1.78125 -12.078125 C 1.78125 -15.910156 2.84375 -18.960938 4.96875 -21.234375 C 7.09375 -23.515625 10.015625 -24.65625 13.734375 -24.65625 Z M 8.671875 -5.484375 C 9.898438 -3.910156 11.585938 -3.125 13.734375 -3.125 C 15.878906 -3.125 17.554688 -3.914062 18.765625 -5.5 C 19.984375 -7.082031 20.59375 -9.273438 20.59375 -12.078125 C 20.59375 -14.910156 19.984375 -17.113281 18.765625 -18.6875 C 17.554688 -20.257812 15.878906 -21.046875 13.734375 -21.046875 C 11.554688 -21.046875 9.859375 -20.257812 8.640625 -18.6875 C 7.429688 -17.113281 6.828125 -14.910156 6.828125 -12.078125 C 6.828125 -9.253906 7.441406 -7.054688 8.671875 -5.484375 Z M 8.671875 -5.484375 "/></g></g></g><g fill="#afc1d0" fill-opacity="1"><g transform="translate(94.139914, 34.9477)"><g/></g></g><g fill="#afc1d0" fill-opacity="1"><g transform="translate(99.18401, 34.9477)"><g><path d="M 23.15625 -14.15625 L 23.15625 -10.375 L 19.859375 -10.375 L 19.859375 -0.34375 C 17.128906 0.207031 14.382812 0.484375 11.625 0.484375 C 5.113281 0.484375 1.859375 -1.734375 1.859375 -6.171875 C 1.859375 -7.773438 2.367188 -9.125 3.390625 -10.21875 C 4.421875 -11.320312 5.828125 -12.035156 7.609375 -12.359375 C 6.242188 -12.710938 5.15625 -13.375 4.34375 -14.34375 C 3.53125 -15.3125 3.125 -16.453125 3.125 -17.765625 C 3.125 -19.929688 3.925781 -21.617188 5.53125 -22.828125 C 7.144531 -24.046875 9.351562 -24.65625 12.15625 -24.65625 C 13.625 -24.65625 14.894531 -24.539062 15.96875 -24.3125 L 15.96875 -20.734375 C 14.738281 -20.941406 13.476562 -21.046875 12.1875 -21.046875 C 10.90625 -21.046875 9.925781 -20.753906 9.25 -20.171875 C 8.570312 -19.585938 8.234375 -18.75 8.234375 -17.65625 C 8.234375 -15.457031 9.390625 -14.300781 11.703125 -14.1875 C 12.117188 -14.164062 12.804688 -14.15625 13.765625 -14.15625 L 15.03125 -14.15625 L 15.03125 -17.40625 L 19.859375 -17.40625 L 19.859375 -14.15625 Z M 7 -6.796875 C 7 -5.460938 7.382812 -4.515625 8.15625 -3.953125 C 8.925781 -3.398438 10.117188 -3.125 11.734375 -3.125 C 12.972656 -3.125 14.070312 -3.210938 15.03125 -3.390625 L 15.03125 -10.375 L 13.453125 -10.375 C 12.609375 -10.375 11.953125 -10.347656 11.484375 -10.296875 C 8.492188 -10.085938 7 -8.921875 7 -6.796875 Z M 7 -6.796875 "/></g></g></g><g fill="#afc1d0" fill-opacity="1"><g transform="translate(121.007891, 34.9477)"><g/></g></g><g fill="#afc1d0" fill-opacity="1"><g transform="translate(126.051987, 34.9477)"><g><path d="M 13.484375 -24.65625 C 16.640625 -24.65625 19.101562 -23.890625 20.875 -22.359375 C 22.65625 -20.835938 23.671875 -18.828125 23.921875 -16.328125 L 23.96875 -15.96875 L 19.125 -15.96875 L 19.0625 -16.328125 C 18.425781 -19.472656 16.546875 -21.046875 13.421875 -21.046875 C 11.453125 -21.046875 9.875 -20.257812 8.6875 -18.6875 C 7.5 -17.113281 6.90625 -14.957031 6.90625 -12.21875 C 6.90625 -9.300781 7.5 -7.054688 8.6875 -5.484375 C 9.875 -3.910156 11.425781 -3.125 13.34375 -3.125 C 14.882812 -3.125 16.125 -3.550781 17.0625 -4.40625 C 18 -5.269531 18.628906 -6.472656 18.953125 -8.015625 L 19.015625 -8.375 L 23.828125 -8.375 L 23.78125 -8.015625 C 23.53125 -5.398438 22.457031 -3.328125 20.5625 -1.796875 C 18.664062 -0.273438 16.191406 0.484375 13.140625 0.484375 C 9.722656 0.484375 6.972656 -0.632812 4.890625 -2.875 C 2.816406 -5.113281 1.78125 -8.140625 1.78125 -11.953125 C 1.78125 -15.828125 2.878906 -18.910156 5.078125 -21.203125 C 7.273438 -23.503906 10.078125 -24.65625 13.484375 -24.65625 Z M 13.484375 -24.65625 "/></g></g></g><g fill="#afc1d0" fill-opacity="1"><g transform="translate(149.452251, 34.9477)"><g><path d="M 13.734375 -24.65625 C 17.421875 -24.65625 20.332031 -23.515625 22.46875 -21.234375 C 24.601562 -18.960938 25.671875 -15.910156 25.671875 -12.078125 C 25.671875 -8.273438 24.601562 -5.226562 22.46875 -2.9375 C 20.332031 -0.65625 17.421875 0.484375 13.734375 0.484375 C 10.046875 0.484375 7.128906 -0.65625 4.984375 -2.9375 C 2.847656 -5.226562 1.78125 -8.273438 1.78125 -12.078125 C 1.78125 -15.910156 2.84375 -18.960938 4.96875 -21.234375 C 7.09375 -23.515625 10.015625 -24.65625 13.734375 -24.65625 Z M 8.671875 -5.484375 C 9.898438 -3.910156 11.585938 -3.125 13.734375 -3.125 C 15.878906 -3.125 17.554688 -3.914062 18.765625 -5.5 C 19.984375 -7.082031 20.59375 -9.273438 20.59375 -12.078125 C 20.59375 -14.910156 19.984375 -17.113281 18.765625 -18.6875 C 17.554688 -20.257812 15.878906 -21.046875 13.734375 -21.046875 C 11.554688 -21.046875 9.859375 -20.257812 8.640625 -18.6875 C 7.429688 -17.113281 6.828125 -14.910156 6.828125 -12.078125 C 6.828125 -9.253906 7.441406 -7.054688 8.671875 -5.484375 Z M 8.671875 -5.484375 "/></g></g></g><g fill="#afc1d0" fill-opacity="1"><g transform="translate(174.498973, 34.9477)"><g><path d="M 2.171875 -4.5625 C 2.710938 -5.113281 3.410156 -5.390625 4.265625 -5.390625 C 5.128906 -5.390625 5.835938 -5.113281 6.390625 -4.5625 C 6.941406 -4.019531 7.21875 -3.316406 7.21875 -2.453125 C 7.21875 -1.585938 6.941406 -0.878906 6.390625 -0.328125 C 5.835938 0.210938 5.128906 0.484375 4.265625 0.484375 C 3.410156 0.484375 2.710938 0.210938 2.171875 -0.328125 C 1.628906 -0.878906 1.359375 -1.585938 1.359375 -2.453125 C 1.359375 -3.316406 1.628906 -4.019531 2.171875 -4.5625 Z M 2.171875 -4.5625 "/></g></g></g></g></g></svg>